<?xml version="1.0" encoding="UTF-8"?>
<!DOCTYPE svg PUBLIC "-//W3C//DTD SVG 1.1//EN" "http://www.w3.org/Graphics/SVG/1.1/DTD/svg11.dtd">
<!-- Creator: CorelDRAW X8 -->
<svg xmlns="http://www.w3.org/2000/svg" xml:space="preserve" width="105mm" height="148mm" version="1.1" style="shape-rendering:geometricPrecision; text-rendering:geometricPrecision; image-rendering:optimizeQuality; fill-rule:evenodd; clip-rule:evenodd"
viewBox="0 0 10500 14800"
 xmlns:xlink="http://www.w3.org/1999/xlink">
 <defs>
  <style type="text/css">
   <![CDATA[
    .fil3 {fill:black}
    .fil4 {fill:#050505}
    .fil2 {fill:#2B2A28}
    .fil15 {fill:#363636}
    .fil14 {fill:#383838}
    .fil10 {fill:#484848}
    .fil9 {fill:#4C4C4C}
    .fil7 {fill:#515151}
    .fil5 {fill:#5B5B5B}
    .fil12 {fill:#5D5D5D}
    .fil11 {fill:#7E7E7E}
    .fil13 {fill:#858585}
    .fil8 {fill:#874937}
    .fil6 {fill:#A85C45}
    .fil0 {fill:#E07B5C}
    .fil1 {fill:#E27C5D}
   ]]>
  </style>
 </defs>
 <g id="Vrstva_x0020_1">
  <metadata id="CorelCorpID_0Corel-Layer"/>
  <g id="_2379593633696">
   <polygon class="fil0" points="6575,6647 6575,4631 3065,4630 3065,6639 "/>
   <path class="fil0" d="M5204 9497l3498 11c0,-313 37,-1825 -17,-2003l-3475 -2 -6 1994z"/>
   <polygon class="fil1" points="835,9497 1290,9496 4345,9491 4341,8886 4337,8385 4334,7953 4332,7703 4339,7516 852,7516 "/>
   <path class="fil2" d="M3065 4630l3510 1 0 2016c38,47 24,-3 17,73l-3585 -9 -3 -2065 61 -16zm-342 2299c0,52 16,68 69,68l4073 0 0 -2639 -4142 0 0 2571z"/>
   <path class="fil3" d="M8866 9611l45 -33c2,16 2,46 0,55 -11,51 -6,29 -18,52l-76 -3c32,-27 31,-23 49,-71zm-3837 -13c129,98 193,62 379,62 623,0 2869,-27 3315,6l-3656 25c-52,-32 -52,35 -38,-93zm3841 -2097c26,31 11,-8 26,45l-29 1973 3 -2018zm-185 4c61,37 42,-32 41,243 -1,400 20,1541 -6,1765 -152,42 -2202,12 -2652,12l-682 0c-230,2 -161,2 -182,-28l6 -1994 3475 2zm-3666 2004c0,-100 -16,-1875 10,-1978l15 -29c53,94 22,1745 22,2005l-47 2zm188 -2170c72,-45 3448,-45 3515,0 -74,54 -1539,24 -1766,24 -88,0 -1674,28 -1749,-24zm3660 69c-17,-74 17,-26 -33,-52l-49 -41 121 11 4 115 -43 -33zm-3835 -82c81,-10 51,-15 103,13 -66,43 -60,54 -113,93l10 -106zm-124 -124c-57,243 -23,2206 -23,2617l4164 0 0 -2480c0,-77 -40,-160 -114,-160 -454,0 -3883,-33 -4027,23z"/>
   <path class="fil3" d="M657 9637c47,-33 -27,-10 36,-10 4,0 35,5 41,6 289,50 2262,32 2649,32l1058 -29c110,-23 -33,-10 99,-41 6,91 28,112 -87,109 -1138,-28 -2139,-20 -3277,-24l-412 25c-148,-6 -81,-24 -107,-68zm181 -2141l3521 9 -4 2015 -3522 -2 5 -2022zm-162 2024c-31,-71 -34,-2007 -9,-2190 183,-41 3614,-17 3666,5 -54,43 -132,28 -221,27l-3404 -2c0,365 -1,729 -2,1094 0,86 29,998 -30,1066zm3826 -2056c-13,-85 -8,-71 -51,-117 -18,-36 -42,10 2,-35l93 12 1 2185c-62,-34 -45,71 -41,-236 1,-83 0,-167 -1,-251l-3 -1558zm-3986 -216l0 2571 4164 0c0,-411 34,-2374 -22,-2617 -52,-12 -53,-23 -114,-23l-3959 0c-52,0 -68,16 -69,66l0 3z"/>
   <path class="fil4" d="M6575 6647l-3510 -8 0 -2009 -61 16 3 2065 3585 9c7,-76 21,-26 -17,-73z"/>
   <path class="fil5" d="M676 9520c59,-68 30,-980 30,-1066 1,-365 2,-729 2,-1094l3404 2c89,1 167,16 221,-27 -52,-22 -3483,-46 -3666,-5 -25,183 -22,2119 9,2190z"/>
   <path class="fil6" d="M852 7516l3487 0 -7 187 2 250 3 432 4 501 4 605 -3055 5 -455 1 17 -1981zm-19 2002l3522 2 4 -2015 -3521 -9 -5 2022z"/>
   <path class="fil7" d="M5207 7339c75,52 1661,24 1749,24 227,0 1692,30 1766,-24 -67,-45 -3443,-45 -3515,0z"/>
   <path class="fil8" d="M5204 9497c21,30 -48,30 182,28l682 0c450,0 2500,30 2652,-12 26,-224 5,-1365 6,-1765 1,-275 20,-206 -41,-243 54,178 17,1690 17,2003l-3498 -11z"/>
   <path class="fil9" d="M657 9637c26,44 -41,62 107,68l412 -25c1138,4 2139,-4 3277,24 115,3 93,-18 87,-109 -132,31 11,18 -99,41l-1058 29c-387,0 -2360,18 -2649,-32 -6,-1 -37,-6 -41,-6 -63,0 11,-23 -36,10z"/>
   <path class="fil7" d="M5019 9509l47 -2c0,-260 31,-1911 -22,-2005l-15 29c-26,103 -10,1878 -10,1978z"/>
   <path class="fil10" d="M4451 7347l74 -12c0,75 15,80 -23,129l3 1558c1,84 2,168 1,251 -4,307 -21,202 41,236l-1 -2185 -93 -12c-44,45 -20,-1 -2,35z"/>
   <path class="fil5" d="M5408 9660c-186,0 -250,36 -379,-62 -14,128 -14,61 38,93l3656 -25c-446,-33 -2692,-6 -3315,-6z"/>
   <path class="fil11" d="M8867 9519l29 -1973c-15,-53 0,-14 -26,-45l-3 2018z"/>
   <path class="fil12" d="M5022 7432c53,-39 47,-50 113,-93 -52,-28 -22,-23 -103,-13l-10 106z"/>
   <path class="fil13" d="M4502 7464c38,-49 23,-54 23,-129l-74 12c43,46 38,32 51,117z"/>
   <path class="fil14" d="M8834 7356l57 -31c-1,124 -6,56 -24,83l43 33 -4 -115 -121 -11 49 41z"/>
   <path class="fil11" d="M8893 9685c-2,-119 1,-46 -27,-74 -18,48 -17,44 -49,71l76 3z"/>
   <path class="fil11" d="M8867 7408c18,-27 23,41 24,-83l-57 31c50,26 16,-22 33,52z"/>
   <path class="fil15" d="M8893 9685c12,-23 7,-1 18,-52 2,-9 2,-39 0,-55l-45 33c28,28 25,-45 27,74z"/>
  </g>
 </g>
</svg>
